<svg xmlns="http://www.w3.org/2000/svg" viewBox="0 0 64 64">
  <defs>
    <linearGradient id="g1" x1="0" y1="0" x2="1" y2="1">
      <stop offset="0" stop-color="#22d3ee"/>
      <stop offset="1" stop-color="#0ea5e9"/>
    </linearGradient>
    <linearGradient id="g2" x1="0" y1="0" x2="1" y2="1">
      <stop offset="0" stop-color="#f59e0b"/>
      <stop offset="1" stop-color="#fb7185"/>
    </linearGradient>
  </defs>
  <rect width="64" height="64" rx="14" fill="#0f172a"/>
  <circle cx="44" cy="22" r="8" fill="url(#g2)"/>
  <path d="M20 36c-4.4 0-8-3.6-8-8s3.6-8 8-8c2.1 0 4 .8 5.4 2.1C27.1 19.1 29.5 18 32 18c5.5 0 10 4.5 10 10 0 .5 0 1-.1 1.5 3 .8 5.1 3.5 5.1 6.5 0 3.7-3 6.7-6.7 6.7H20c-3.9 0-7-3.1-7-7 0-.7.1-1.4.3-2.1.9 1.7 2.7 2.9 4.7 2.9z" fill="url(#g1)"/>
  <path d="M30 38l-6 12h6l-2 8 12-14h-7l3-6z" fill="#f59e0b"/>
</svg>
